<?xml version="1.0" encoding="UTF-8"?>
<svg id="Layer_1" data-name="Layer 1" xmlns="http://www.w3.org/2000/svg" viewBox="0 0 115.15 121.23">
  <defs>
    <style>
      .cls-1, .cls-2 {
        fill: #231f20;
      }

      .cls-2 {
        fill-rule: evenodd;
      }
    </style>
  </defs>
  <path class="cls-2" d="m57.58,71.12l-15.4-8.89-15.4-8.89V17.78l15.4-8.89L57.58,0c0,10.14,0,20.28,0,30.42h-6.33v-12.7l-2.98,1.72-8.49,4.9v22.44l8.49,4.9,2.98,1.72v-12.7h6.33c0,10.14,0,20.28,0,30.42"/>
  <path class="cls-2" d="m57.58,0l15.4,8.89,15.4,8.89v35.56l-15.4,8.89-15.4,8.89c0-10.14,0-20.28,0-30.42h6.33c0,4.23,0,8.46,0,12.7l2.98-1.72,8.49-4.9v-22.44l-8.49-4.9-2.98-1.72c0,4.23,0,8.47,0,12.7h-6.33c0-10.14,0-20.28,0-30.42"/>
  <polygon class="cls-1" points="0 84.78 3.95 84.78 3.95 93.58 11.56 93.58 11.56 84.78 15.54 84.78 15.54 107.45 11.56 107.45 11.56 97.66 3.95 97.66 3.95 107.45 0 107.45 0 84.78"/>
  <path class="cls-1" d="m26.96,98.87h4.82l-2.39-8.89-2.43,8.89Zm-6.62,8.58l6.87-22.66h4.48l6.78,22.66h-4.29l-1.34-4.76h-7l-1.31,4.76h-4.2Z"/>
  <path class="cls-1" d="m39.15,84.78h4.17l2.46,12.62c.06.35.12.71.17,1.06.05.35.11.7.17,1.06.04.35.09.71.14,1.06.05.35.11.71.17,1.06.04-.23.07-.46.09-.7.02-.24.05-.47.09-.7,0-.12.01-.24.03-.36.02-.11.04-.23.06-.36.04-.35.08-.71.12-1.06.04-.35.09-.7.16-1.06l1.99-12.62h4.54l2.02,12.81c.1.71.2,1.42.3,2.13.09.71.18,1.44.26,2.16.04-.29.09-.58.14-.86.05-.28.1-.56.14-.85.06-.44.13-.87.2-1.29.07-.42.15-.85.23-1.29l2.64-12.81h3.95l-5.47,22.66h-3.89l-2.24-12.93c-.06-.35-.12-.71-.17-1.07-.05-.36-.1-.73-.14-1.1-.06-.35-.12-.71-.17-1.07-.05-.36-.1-.72-.14-1.07-.04.35-.09.71-.14,1.07-.05.36-.11.72-.17,1.07-.04.37-.09.74-.14,1.1-.05.36-.11.72-.17,1.07l-2.18,12.93h-3.82l-5.41-22.66Z"/>
  <polygon class="cls-1" points="68.07 84.78 72.02 84.78 72.02 94.55 79.88 84.78 84.89 84.78 76.96 94.17 85.39 107.45 80.32 107.45 73.98 97.59 72.02 99.83 72.02 107.45 68.07 107.45 68.07 84.78"/>
  <rect class="cls-1" x="89.62" y="84.78" width="3.98" height="22.66"/>
  <polygon class="cls-1" points="99.61 107.45 99.61 84.78 103.56 84.78 111.39 100.58 111.39 84.78 115.15 84.78 115.15 107.45 111.39 107.45 103.37 91.66 103.37 107.45 99.61 107.45"/>
  <path class="cls-1" d="m1.67,113.5v5.91h1.28c.29,0,.52-.02.68-.05.16-.03.3-.1.44-.19,0,0,.02-.02.03-.03.01,0,.03-.02.04-.02.27-.22.48-.57.64-1.06.16-.48.23-1.05.23-1.7,0-.47-.04-.89-.11-1.25-.08-.36-.19-.67-.35-.93-.14-.25-.33-.43-.57-.53-.24-.1-.58-.15-1.02-.15h-1.28Zm-1.61-1.66h3.05c.47,0,.85.03,1.12.08.27.05.53.14.77.27,0,0,.01.01.02.02,0,0,.01,0,.02,0,.49.28.86.7,1.1,1.26.24.56.4,1.15.48,1.76.03.18.04.36.05.54,0,.18.01.36.01.52,0,1.05-.16,1.96-.49,2.75-.33.79-.78,1.34-1.34,1.66-.24.14-.49.23-.76.28-.27.05-.64.08-1.1.08H.07v-9.22Z"/>
  <polygon class="cls-1" points="15.65 111.84 17.48 111.84 19.17 115.81 20.8 111.84 22.55 111.84 19.94 117.61 19.94 121.06 18.34 121.06 18.34 117.61 15.65 111.84"/>
  <polygon class="cls-1" points="31.81 121.06 31.81 111.84 33.42 111.84 36.6 118.27 36.6 111.84 38.13 111.84 38.13 121.06 36.6 121.06 33.34 114.64 33.34 121.06 31.81 121.06"/>
  <path class="cls-1" d="m50.14,117.57h1.96l-.97-3.62-.99,3.62Zm-2.69,3.49l2.8-9.22h1.82l2.76,9.22h-1.75l-.54-1.94h-2.85l-.53,1.94h-1.71Z"/>
  <path class="cls-1" d="m64.15,111.84h2.47l1.01,5.29c.02.14.05.29.08.44.03.15.05.29.06.44.03.15.05.3.07.45.02.15.04.29.07.44.02-.14.05-.29.08-.44.03-.15.05-.3.08-.45.02-.14.04-.29.06-.44.03-.15.05-.29.08-.44l1.04-5.29h2.43v9.22h-1.53v-7.6l-1.44,7.6h-1.57l-1.44-7.6v7.6h-1.53v-9.22Z"/>
  <rect class="cls-1" x="81.47" y="111.84" width="1.62" height="9.22"/>
  <path class="cls-1" d="m99.51,114.9h-1.63c-.11-.55-.29-.95-.54-1.2-.25-.25-.6-.38-1.04-.38-.64,0-1.14.28-1.49.83-.35.55-.53,1.34-.53,2.37,0,.95.17,1.7.52,2.25.35.54.82.82,1.43.82.43,0,.78-.14,1.05-.43.27-.29.47-.72.61-1.32h1.63c-.05.33-.11.6-.16.82-.06.22-.14.43-.23.63-.03.07-.07.13-.11.2-.04.07-.08.13-.12.2-.31.5-.7.88-1.16,1.14-.46.26-.97.39-1.54.39-1.1,0-1.98-.42-2.62-1.27-.64-.85-.97-2-.97-3.45s.33-2.66.98-3.54c.65-.87,1.53-1.31,2.64-1.31.93,0,1.69.29,2.28.88.59.59.93,1.37,1.01,2.36"/>
  <path class="cls-1" d="m108.77,118.18h1.54c.1.57.29.96.58,1.19.28.23.66.34,1.14.34.43,0,.78-.1,1.04-.3.27-.2.4-.46.4-.78,0-.17-.05-.32-.16-.45-.11-.13-.27-.25-.49-.35l-2.38-1.08c-.46-.21-.83-.49-1.11-.84-.27-.35-.41-.83-.41-1.45,0-.84.26-1.52.79-2.03.53-.51,1.22-.77,2.09-.77.94,0,1.68.26,2.2.77.52.51.81,1.25.85,2.21h-1.57c-.08-.51-.24-.87-.47-1.1-.23-.23-.56-.34-.99-.34-.39,0-.71.1-.96.3-.25.2-.38.46-.38.76,0,.14.05.28.14.4s.23.23.41.31l2.45,1.1c.49.23.88.5,1.17.82.29.32.44.81.44,1.49,0,.44-.08.85-.25,1.23-.16.38-.41.71-.73.99-.27.24-.57.4-.89.5-.33.1-.72.15-1.2.15-.67,0-1.23-.11-1.7-.33-.46-.22-.83-.55-1.1-.99-.02-.03-.03-.05-.04-.08s-.03-.05-.04-.08c-.11-.2-.19-.42-.25-.66-.05-.24-.09-.54-.12-.92"/>
</svg>