<?xml version="1.0" encoding="UTF-8"?>
<svg id="Layer_1" data-name="Layer 1" xmlns="http://www.w3.org/2000/svg" viewBox="0 0 177.65 69.05">
  <defs>
    <style>
      .cls-1, .cls-2 {
        stroke-width: 0px;
      }

      .cls-2 {
        fill-rule: evenodd;
      }
    </style>
  </defs>
  <path class="cls-2" d="m44.85,8.63L29.9,0l-14.95,8.63L0,17.26v34.52l14.95,8.63,14.95,8.63,14.95-8.63,14.95-8.63V17.26l-14.95-8.63Zm2.33,36.78l-8.24,4.76-2.89,1.67c0-4.11,0-8.22,0-12.33h-12.3v12.33l-2.89-1.67-8.24-4.76v-21.78l8.24-4.76,2.89-1.67v12.33h12.3c0-4.11,0-8.22,0-12.33l2.89,1.67,8.24,4.76v21.78Z"/>
  <g>
    <g>
      <polygon class="cls-1" points="65.79 16.82 69.63 16.82 69.63 25.37 77.02 25.37 77.02 16.82 80.89 16.82 80.89 38.84 77.02 38.84 77.02 29.33 69.63 29.33 69.63 38.84 65.79 38.84 65.79 16.82"/>
      <path class="cls-1" d="m91.98,30.5h4.68l-2.33-8.64-2.36,8.64Zm-6.43,8.34l6.67-22.02h4.35l6.58,22.02h-4.17l-1.3-4.62h-6.8l-1.27,4.62h-4.08Z"/>
      <path class="cls-1" d="m103.82,16.82h4.05l2.39,12.26c.06.34.12.68.17,1.03.05.34.11.68.17,1.03.04.34.09.68.14,1.03.05.34.11.68.17,1.03.04-.22.07-.45.09-.68.02-.23.05-.46.09-.68,0-.12,0-.24.03-.35.02-.11.04-.23.06-.35.04-.34.08-.68.12-1.03.04-.34.09-.68.15-1.03l1.93-12.26h4.41l1.96,12.44c.1.68.2,1.37.29,2.07.09.69.18,1.39.26,2.1.04-.28.09-.56.14-.83.05-.27.1-.55.14-.83.06-.42.13-.84.2-1.25.07-.41.15-.83.23-1.25l2.57-12.44h3.83l-5.31,22.02h-3.78l-2.17-12.56c-.06-.34-.12-.69-.17-1.04-.05-.35-.1-.71-.14-1.07-.06-.34-.12-.69-.17-1.04-.05-.35-.1-.7-.14-1.04-.04.34-.09.69-.14,1.04-.05.35-.11.7-.17,1.04-.04.36-.09.72-.14,1.07-.05.35-.11.7-.17,1.04l-2.11,12.56h-3.71l-5.26-22.02Z"/>
      <polygon class="cls-1" points="131.92 16.82 135.75 16.82 135.75 26.31 143.39 16.82 148.26 16.82 140.56 25.94 148.74 38.84 143.82 38.84 137.66 29.26 135.75 31.44 135.75 38.84 131.92 38.84 131.92 16.82"/>
      <rect class="cls-1" x="152.85" y="16.82" width="3.86" height="22.02"/>
      <polygon class="cls-1" points="162.55 38.84 162.55 16.82 166.39 16.82 174 32.16 174 16.82 177.65 16.82 177.65 38.84 174 38.84 166.21 23.5 166.21 38.84 162.55 38.84"/>
    </g>
    <g>
      <path class="cls-1" d="m67.42,44.72v5.74h1.24c.29,0,.51-.02.66-.05.15-.03.29-.09.42-.18,0,0,.02-.02.03-.02.01,0,.03-.02.04-.02.26-.21.47-.55.62-1.03.15-.47.23-1.02.23-1.65,0-.46-.04-.86-.11-1.21-.07-.35-.19-.65-.34-.9-.14-.25-.32-.42-.55-.52-.23-.1-.56-.15-1-.15h-1.24Zm-1.56-1.61h2.96c.46,0,.82.03,1.09.07.27.05.51.14.74.26,0,0,.01.01.02.02,0,0,0,0,.02,0,.47.27.83.68,1.07,1.22.24.54.39,1.12.47,1.71.03.17.04.35.05.52,0,.18.01.35.01.51,0,1.02-.16,1.91-.48,2.67-.32.77-.75,1.3-1.3,1.62-.23.13-.47.22-.74.27-.26.05-.62.07-1.07.07h-2.84v-8.96Z"/>
      <polygon class="cls-1" points="81 43.11 82.77 43.11 84.41 46.97 86 43.11 87.69 43.11 85.16 48.71 85.16 52.07 83.6 52.07 83.6 48.71 81 43.11"/>
      <polygon class="cls-1" points="96.69 52.07 96.69 43.11 98.25 43.11 101.35 49.35 101.35 43.11 102.84 43.11 102.84 52.07 101.35 52.07 98.18 45.82 98.18 52.07 96.69 52.07"/>
      <path class="cls-1" d="m114.5,48.67h1.9l-.95-3.51-.96,3.51Zm-2.62,3.39l2.72-8.96h1.77l2.68,8.96h-1.7l-.53-1.88h-2.76l-.52,1.88h-1.66Z"/>
      <path class="cls-1" d="m128.11,43.11h2.4l.98,5.14c.02.14.05.28.07.42.02.14.05.28.06.42.02.15.05.29.07.44.02.14.04.29.07.42.02-.14.05-.28.07-.42.02-.14.05-.29.07-.44.02-.14.04-.28.06-.42.02-.14.05-.28.07-.42l1.01-5.14h2.36v8.96h-1.49v-7.38l-1.4,7.38h-1.52l-1.4-7.38v7.38h-1.49v-8.96Z"/>
      <rect class="cls-1" x="144.93" y="43.11" width="1.57" height="8.96"/>
      <path class="cls-1" d="m162.46,46.08h-1.59c-.11-.53-.28-.92-.53-1.17-.25-.25-.58-.37-1.01-.37-.62,0-1.11.27-1.45.8-.34.54-.52,1.3-.52,2.3,0,.93.17,1.65.5,2.18.34.53.8.79,1.39.79.42,0,.76-.14,1.02-.42.26-.28.46-.7.59-1.28h1.59c-.05.32-.1.59-.16.8-.06.21-.13.42-.22.61-.03.07-.07.13-.1.2-.04.07-.07.13-.12.2-.3.48-.68.85-1.12,1.11-.45.25-.94.38-1.49.38-1.07,0-1.92-.41-2.55-1.23-.63-.82-.94-1.94-.94-3.35s.32-2.59.95-3.43c.64-.85,1.49-1.27,2.56-1.27.9,0,1.64.28,2.21.85.57.57.9,1.33.98,2.29"/>
      <path class="cls-1" d="m171.45,49.26h1.5c.1.55.28.93.56,1.15.27.22.65.33,1.11.33.42,0,.76-.1,1.01-.3.26-.2.39-.45.39-.76,0-.16-.05-.31-.16-.44-.11-.13-.27-.24-.48-.34l-2.31-1.04c-.45-.2-.81-.48-1.07-.82-.27-.34-.4-.81-.4-1.41,0-.82.26-1.48.77-1.97.51-.5,1.19-.74,2.03-.74.92,0,1.63.25,2.14.74.51.5.78,1.21.82,2.14h-1.52c-.08-.49-.24-.85-.46-1.07-.22-.22-.55-.33-.96-.33-.38,0-.69.1-.93.3-.25.2-.37.44-.37.74,0,.14.04.27.13.39s.22.22.39.3l2.38,1.07c.48.22.85.49,1.14.79.28.31.42.79.42,1.44,0,.43-.08.82-.24,1.19-.16.37-.39.69-.71.96-.26.23-.55.39-.87.48-.32.09-.7.14-1.16.14-.65,0-1.2-.11-1.65-.32-.45-.21-.81-.53-1.07-.96-.02-.02-.03-.05-.04-.07s-.03-.05-.04-.07c-.11-.2-.19-.41-.24-.64-.05-.23-.09-.53-.12-.9"/>
    </g>
  </g>
</svg>